<svg preserveAspectRatio="xMidYMid meet" data-bbox="14.175 15 73.504 73.504" height="8.35%" width="8.35%" viewBox="14.175 15 73.504 73.504"
    xmlns="http://www.w3.org/2000/svg" data-type="color" role="presentation" aria-hidden="true">
    <defs>
        <style>#comp-lioqji9c svg [data-color="1"] {fill: #111111;}</style>
    </defs>
    <g>
        <path d="M80.432 27.998a.999.999 0 0 0 .884-.277l6.07-6.071a1 1 0 0 0-.53-1.692l-3.506-.629-.629-3.506a1 1 0 0 0-1.691-.53l-6.072 6.071a1 1 0 0 0-.277.884l.66 3.676-2.153 2.153c-6.272-5.927-14.722-9.573-24.013-9.573-19.299 0-35 15.702-35 35s15.701 35 35 35 35-15.7 35-35c0-9.29-3.645-17.74-9.573-24.013l2.153-2.153 3.677.66zm-5.404 25.506c0 14.256-11.597 25.853-25.853 25.853S23.323 67.76 23.323 53.504 34.92 27.652 49.175 27.652c6.769 0 12.935 2.618 17.548 6.89l-3.654 3.655c-3.679-3.342-8.544-5.398-13.894-5.398-11.417 0-20.705 9.288-20.705 20.705S37.758 74.21 49.175 74.21 69.88 64.921 69.88 53.504c0-5.349-2.056-10.215-5.397-13.893l3.654-3.655c4.273 4.613 6.89 10.78 6.89 17.548zm-25.853 6.41a6.417 6.417 0 0 0 6.41-6.41 6.368 6.368 0 0 0-1.232-3.763l3.664-3.665a11.501 11.501 0 0 1 2.716 7.428c0 6.373-5.185 11.558-11.558 11.558s-11.557-5.185-11.557-11.558 5.184-11.558 11.557-11.558a11.5 11.5 0 0 1 7.428 2.716l-3.664 3.664a6.367 6.367 0 0 0-3.764-1.232c-3.534 0-6.41 2.876-6.41 6.41s2.876 6.41 6.41 6.41z" fill="#111111" data-color="1"></path>
    </g>
</svg>